<mxfile host="app.diagrams.net" agent="Mozilla/5.0 (Windows NT 10.0; Win64; x64) AppleWebKit/537.36 (KHTML, like Gecko) Chrome/138.0.0.0 Safari/537.36" version="28.0.6">
  <diagram name="PÃ¡gina-1" id="PKWrscWFnr-TlmV1Rs-A">
    <mxGraphModel grid="1" page="1" gridSize="10" guides="1" tooltips="1" connect="1" arrows="1" fold="1" pageScale="1" pageWidth="827" pageHeight="1169" math="0" shadow="0">
      <root>
        <mxCell id="0" />
        <mxCell id="1" parent="0" />
        <mxCell id="3WMDfbqQxwfLkwzgOsEz-2" value="" style="html=1;verticalAlign=bottom;startArrow=oval;startFill=1;endArrow=block;startSize=8;curved=0;rounded=0;" edge="1" parent="1">
          <mxGeometry width="60" relative="1" as="geometry">
            <mxPoint x="560" y="130" as="sourcePoint" />
            <mxPoint x="560" y="210" as="targetPoint" />
          </mxGeometry>
        </mxCell>
        <mxCell id="3WMDfbqQxwfLkwzgOsEz-3" style="edgeStyle=orthogonalEdgeStyle;rounded=0;orthogonalLoop=1;jettySize=auto;html=1;" edge="1" parent="1" source="3WMDfbqQxwfLkwzgOsEz-4" target="3WMDfbqQxwfLkwzgOsEz-7">
          <mxGeometry relative="1" as="geometry" />
        </mxCell>
        <mxCell id="3WMDfbqQxwfLkwzgOsEz-4" value="Ref" style="shape=umlFrame;whiteSpace=wrap;html=1;pointerEvents=0;" vertex="1" parent="1">
          <mxGeometry x="450" y="210" width="250" height="90" as="geometry" />
        </mxCell>
        <mxCell id="3WMDfbqQxwfLkwzgOsEz-5" value="Buacar evento" style="text;html=1;align=center;verticalAlign=middle;resizable=0;points=[];autosize=1;strokeColor=none;fillColor=none;" vertex="1" parent="1">
          <mxGeometry x="510" y="248" width="100" height="30" as="geometry" />
        </mxCell>
        <mxCell id="3WMDfbqQxwfLkwzgOsEz-6" style="edgeStyle=orthogonalEdgeStyle;rounded=0;orthogonalLoop=1;jettySize=auto;html=1;" edge="1" parent="1" source="3WMDfbqQxwfLkwzgOsEz-7" target="3WMDfbqQxwfLkwzgOsEz-10">
          <mxGeometry relative="1" as="geometry" />
        </mxCell>
        <mxCell id="3WMDfbqQxwfLkwzgOsEz-7" value="Ref" style="shape=umlFrame;whiteSpace=wrap;html=1;pointerEvents=0;" vertex="1" parent="1">
          <mxGeometry x="450" y="390" width="250" height="90" as="geometry" />
        </mxCell>
        <mxCell id="3WMDfbqQxwfLkwzgOsEz-8" value="listado de eventos" style="text;html=1;align=center;verticalAlign=middle;resizable=0;points=[];autosize=1;strokeColor=none;fillColor=none;" vertex="1" parent="1">
          <mxGeometry x="500" y="428" width="120" height="30" as="geometry" />
        </mxCell>
        <mxCell id="3WMDfbqQxwfLkwzgOsEz-9" style="edgeStyle=orthogonalEdgeStyle;rounded=0;orthogonalLoop=1;jettySize=auto;html=1;" edge="1" parent="1" source="3WMDfbqQxwfLkwzgOsEz-10" target="3WMDfbqQxwfLkwzgOsEz-15">
          <mxGeometry relative="1" as="geometry" />
        </mxCell>
        <mxCell id="3WMDfbqQxwfLkwzgOsEz-10" value="" style="rhombus;whiteSpace=wrap;html=1;" vertex="1" parent="1">
          <mxGeometry x="543.5" y="560" width="63" height="50" as="geometry" />
        </mxCell>
        <mxCell id="3WMDfbqQxwfLkwzgOsEz-11" style="edgeStyle=orthogonalEdgeStyle;rounded=0;orthogonalLoop=1;jettySize=auto;html=1;" edge="1" parent="1" source="3WMDfbqQxwfLkwzgOsEz-12" target="3WMDfbqQxwfLkwzgOsEz-20">
          <mxGeometry relative="1" as="geometry" />
        </mxCell>
        <mxCell id="3WMDfbqQxwfLkwzgOsEz-12" value="Sd crear eventes" style="shape=umlFrame;whiteSpace=wrap;html=1;pointerEvents=0;" vertex="1" parent="1">
          <mxGeometry x="70" y="650" width="430" height="310" as="geometry" />
        </mxCell>
        <mxCell id="3WMDfbqQxwfLkwzgOsEz-13" value="crear evento&amp;nbsp;&amp;nbsp;" style="text;html=1;align=center;verticalAlign=middle;resizable=0;points=[];autosize=1;strokeColor=none;fillColor=none;" vertex="1" parent="1">
          <mxGeometry x="240" y="790" width="100" height="30" as="geometry" />
        </mxCell>
        <mxCell id="3WMDfbqQxwfLkwzgOsEz-14" style="edgeStyle=orthogonalEdgeStyle;rounded=0;orthogonalLoop=1;jettySize=auto;html=1;entryX=0.5;entryY=0;entryDx=0;entryDy=0;" edge="1" parent="1" source="3WMDfbqQxwfLkwzgOsEz-15" target="3WMDfbqQxwfLkwzgOsEz-20">
          <mxGeometry relative="1" as="geometry" />
        </mxCell>
        <mxCell id="3WMDfbqQxwfLkwzgOsEz-15" value="Sd cuenta" style="shape=umlFrame;whiteSpace=wrap;html=1;pointerEvents=0;" vertex="1" parent="1">
          <mxGeometry x="650" y="650" width="410" height="310" as="geometry" />
        </mxCell>
        <mxCell id="3WMDfbqQxwfLkwzgOsEz-16" value="editar evento" style="text;html=1;align=center;verticalAlign=middle;resizable=0;points=[];autosize=1;strokeColor=none;fillColor=none;" vertex="1" parent="1">
          <mxGeometry x="810" y="791" width="90" height="30" as="geometry" />
        </mxCell>
        <mxCell id="3WMDfbqQxwfLkwzgOsEz-17" value="Ref" style="shape=umlFrame;whiteSpace=wrap;html=1;pointerEvents=0;" vertex="1" parent="1">
          <mxGeometry x="452" y="1360" width="250" height="90" as="geometry" />
        </mxCell>
        <mxCell id="3WMDfbqQxwfLkwzgOsEz-18" value="Asignacion de recursos" style="text;html=1;align=center;verticalAlign=middle;resizable=0;points=[];autosize=1;strokeColor=none;fillColor=none;" vertex="1" parent="1">
          <mxGeometry x="500" y="1390" width="150" height="30" as="geometry" />
        </mxCell>
        <mxCell id="3WMDfbqQxwfLkwzgOsEz-19" style="edgeStyle=orthogonalEdgeStyle;rounded=0;orthogonalLoop=1;jettySize=auto;html=1;entryX=0.447;entryY=0.013;entryDx=0;entryDy=0;entryPerimeter=0;" edge="1" parent="1" source="3WMDfbqQxwfLkwzgOsEz-10" target="3WMDfbqQxwfLkwzgOsEz-12">
          <mxGeometry relative="1" as="geometry" />
        </mxCell>
        <mxCell id="3WMDfbqQxwfLkwzgOsEz-20" value="" style="rounded=0;whiteSpace=wrap;html=1;" vertex="1" parent="1">
          <mxGeometry x="512" y="1240" width="120" height="20" as="geometry" />
        </mxCell>
        <mxCell id="3WMDfbqQxwfLkwzgOsEz-21" style="edgeStyle=orthogonalEdgeStyle;rounded=0;orthogonalLoop=1;jettySize=auto;html=1;entryX=0.479;entryY=0.042;entryDx=0;entryDy=0;entryPerimeter=0;" edge="1" parent="1" source="3WMDfbqQxwfLkwzgOsEz-20" target="3WMDfbqQxwfLkwzgOsEz-17">
          <mxGeometry relative="1" as="geometry" />
        </mxCell>
        <mxCell id="3WMDfbqQxwfLkwzgOsEz-22" value="Ref" style="shape=umlFrame;whiteSpace=wrap;html=1;pointerEvents=0;" vertex="1" parent="1">
          <mxGeometry x="450" y="1580" width="250" height="90" as="geometry" />
        </mxCell>
        <mxCell id="3WMDfbqQxwfLkwzgOsEz-23" value="validar disponibilidad" style="text;html=1;align=center;verticalAlign=middle;resizable=0;points=[];autosize=1;strokeColor=none;fillColor=none;" vertex="1" parent="1">
          <mxGeometry x="508" y="1610" width="130" height="30" as="geometry" />
        </mxCell>
        <mxCell id="3WMDfbqQxwfLkwzgOsEz-24" style="edgeStyle=orthogonalEdgeStyle;rounded=0;orthogonalLoop=1;jettySize=auto;html=1;entryX=0.51;entryY=0.007;entryDx=0;entryDy=0;entryPerimeter=0;" edge="1" parent="1" source="3WMDfbqQxwfLkwzgOsEz-17" target="3WMDfbqQxwfLkwzgOsEz-22">
          <mxGeometry relative="1" as="geometry" />
        </mxCell>
        <mxCell id="3WMDfbqQxwfLkwzgOsEz-29" style="edgeStyle=orthogonalEdgeStyle;rounded=0;orthogonalLoop=1;jettySize=auto;html=1;entryX=0.5;entryY=0;entryDx=0;entryDy=0;" edge="1" parent="1" source="3WMDfbqQxwfLkwzgOsEz-25" target="3WMDfbqQxwfLkwzgOsEz-28">
          <mxGeometry relative="1" as="geometry" />
        </mxCell>
        <mxCell id="3WMDfbqQxwfLkwzgOsEz-25" value="Ref" style="shape=umlFrame;whiteSpace=wrap;html=1;pointerEvents=0;" vertex="1" parent="1">
          <mxGeometry x="452" y="1790" width="250" height="90" as="geometry" />
        </mxCell>
        <mxCell id="3WMDfbqQxwfLkwzgOsEz-26" value="Enviar notificacion" style="text;html=1;align=center;verticalAlign=middle;resizable=0;points=[];autosize=1;strokeColor=none;fillColor=none;" vertex="1" parent="1">
          <mxGeometry x="515" y="1820" width="120" height="30" as="geometry" />
        </mxCell>
        <mxCell id="3WMDfbqQxwfLkwzgOsEz-27" style="edgeStyle=orthogonalEdgeStyle;rounded=0;orthogonalLoop=1;jettySize=auto;html=1;entryX=0.492;entryY=-0.031;entryDx=0;entryDy=0;entryPerimeter=0;" edge="1" parent="1" source="3WMDfbqQxwfLkwzgOsEz-22" target="3WMDfbqQxwfLkwzgOsEz-25">
          <mxGeometry relative="1" as="geometry" />
        </mxCell>
        <mxCell id="3WMDfbqQxwfLkwzgOsEz-28" value="" style="ellipse;html=1;shape=endState;fillColor=#000000;strokeColor=#ff0000;" vertex="1" parent="1">
          <mxGeometry x="560" y="1970" width="30" height="30" as="geometry" />
        </mxCell>
        <mxCell id="4_qEmr9cSp8Ee69NJg4A-2" value="usuario&amp;nbsp;" style="shape=umlLifeline;perimeter=lifelinePerimeter;whiteSpace=wrap;html=1;container=1;dropTarget=0;collapsible=0;recursiveResize=0;outlineConnect=0;portConstraint=eastwest;newEdgeStyle={&quot;curved&quot;:0,&quot;rounded&quot;:0};size=40;" vertex="1" parent="1">
          <mxGeometry x="110" y="720" width="70" height="192" as="geometry" />
        </mxCell>
        <mxCell id="4_qEmr9cSp8Ee69NJg4A-3" value="sistema" style="shape=umlLifeline;perimeter=lifelinePerimeter;whiteSpace=wrap;html=1;container=1;dropTarget=0;collapsible=0;recursiveResize=0;outlineConnect=0;portConstraint=eastwest;newEdgeStyle={&quot;curved&quot;:0,&quot;rounded&quot;:0};" vertex="1" parent="1">
          <mxGeometry x="380" y="720" width="70" height="192" as="geometry" />
        </mxCell>
        <mxCell id="4_qEmr9cSp8Ee69NJg4A-4" value="" style="html=1;points=[[0,0,0,0,5],[0,1,0,0,-5],[1,0,0,0,5],[1,1,0,0,-5]];perimeter=orthogonalPerimeter;outlineConnect=0;targetShapes=umlLifeline;portConstraint=eastwest;newEdgeStyle={&quot;curved&quot;:0,&quot;rounded&quot;:0};" vertex="1" parent="4_qEmr9cSp8Ee69NJg4A-3">
          <mxGeometry x="30" y="112" width="10" height="80" as="geometry" />
        </mxCell>
        <mxCell id="4_qEmr9cSp8Ee69NJg4A-5" value="" style="html=1;verticalAlign=bottom;startArrow=oval;endArrow=block;startSize=8;curved=0;rounded=0;entryX=0;entryY=0;entryDx=0;entryDy=5;" edge="1" parent="1" target="4_qEmr9cSp8Ee69NJg4A-4">
          <mxGeometry relative="1" as="geometry">
            <mxPoint x="150" y="837" as="sourcePoint" />
          </mxGeometry>
        </mxCell>
        <mxCell id="4_qEmr9cSp8Ee69NJg4A-7" value="sistema" style="shape=umlLifeline;perimeter=lifelinePerimeter;whiteSpace=wrap;html=1;container=1;dropTarget=0;collapsible=0;recursiveResize=0;outlineConnect=0;portConstraint=eastwest;newEdgeStyle={&quot;curved&quot;:0,&quot;rounded&quot;:0};size=40;" vertex="1" parent="1">
          <mxGeometry x="680" y="710" width="70" height="192" as="geometry" />
        </mxCell>
        <mxCell id="4_qEmr9cSp8Ee69NJg4A-8" value="base de datos" style="shape=umlLifeline;perimeter=lifelinePerimeter;whiteSpace=wrap;html=1;container=1;dropTarget=0;collapsible=0;recursiveResize=0;outlineConnect=0;portConstraint=eastwest;newEdgeStyle={&quot;curved&quot;:0,&quot;rounded&quot;:0};" vertex="1" parent="1">
          <mxGeometry x="950" y="710" width="70" height="192" as="geometry" />
        </mxCell>
        <mxCell id="4_qEmr9cSp8Ee69NJg4A-9" value="" style="html=1;points=[[0,0,0,0,5],[0,1,0,0,-5],[1,0,0,0,5],[1,1,0,0,-5]];perimeter=orthogonalPerimeter;outlineConnect=0;targetShapes=umlLifeline;portConstraint=eastwest;newEdgeStyle={&quot;curved&quot;:0,&quot;rounded&quot;:0};" vertex="1" parent="4_qEmr9cSp8Ee69NJg4A-8">
          <mxGeometry x="30" y="112" width="10" height="80" as="geometry" />
        </mxCell>
        <mxCell id="4_qEmr9cSp8Ee69NJg4A-10" value="" style="html=1;verticalAlign=bottom;startArrow=oval;endArrow=block;startSize=8;curved=0;rounded=0;entryX=0;entryY=0;entryDx=0;entryDy=5;" edge="1" parent="1" target="4_qEmr9cSp8Ee69NJg4A-9">
          <mxGeometry relative="1" as="geometry">
            <mxPoint x="720" y="827" as="sourcePoint" />
          </mxGeometry>
        </mxCell>
      </root>
    </mxGraphModel>
  </diagram>
</mxfile>
